<mxfile host="app.diagrams.net" modified="2022-03-05T19:23:55.435Z" agent="5.0 (Windows)" etag="tr_qaldYPdzS9Di6zj40" version="16.6.6" type="github">
  <diagram name="Page-1" id="c7558073-3199-34d8-9f00-42111426c3f3">
    <mxGraphModel dx="1422" dy="780" grid="1" gridSize="10" guides="1" tooltips="1" connect="1" arrows="1" fold="1" page="1" pageScale="1" pageWidth="826" pageHeight="1169" background="none" math="0" shadow="0">
      <root>
        <mxCell id="0" />
        <mxCell id="1" parent="0" />
        <mxCell id="C9hYvCVV3uAxWGgse5YC-166" style="edgeStyle=orthogonalEdgeStyle;rounded=0;orthogonalLoop=1;jettySize=auto;html=1;exitX=1;exitY=0.5;exitDx=0;exitDy=0;entryX=0;entryY=0.5;entryDx=0;entryDy=0;" edge="1" parent="1" source="14" target="C9hYvCVV3uAxWGgse5YC-103">
          <mxGeometry relative="1" as="geometry" />
        </mxCell>
        <mxCell id="14" value="Display loop start" style="whiteSpace=wrap;align=center;verticalAlign=middle;fontStyle=1;strokeWidth=3;fillColor=#cdeb8b;strokeColor=#36393d;" parent="1" vertex="1">
          <mxGeometry x="30" y="20" width="110" height="60" as="geometry" />
        </mxCell>
        <mxCell id="C9hYvCVV3uAxWGgse5YC-167" style="edgeStyle=orthogonalEdgeStyle;rounded=0;orthogonalLoop=1;jettySize=auto;html=1;exitX=0.5;exitY=1;exitDx=0;exitDy=0;entryX=0.5;entryY=0;entryDx=0;entryDy=0;" edge="1" parent="1" source="C9hYvCVV3uAxWGgse5YC-100" target="C9hYvCVV3uAxWGgse5YC-104">
          <mxGeometry relative="1" as="geometry" />
        </mxCell>
        <mxCell id="C9hYvCVV3uAxWGgse5YC-100" value="&lt;p style=&quot;margin: 0px ; margin-top: 4px ; text-align: center ; text-decoration: underline&quot;&gt;&lt;strong&gt;Framebuffer configuration&lt;br&gt;&lt;/strong&gt;&lt;/p&gt;&lt;hr&gt;&lt;div&gt;Create supersampled viewport&lt;/div&gt;&lt;div&gt;Reset all framebuffers to calculated resolution (if needed)&lt;br&gt;&lt;/div&gt;" style="verticalAlign=middle;align=center;overflow=fill;fontSize=12;fontFamily=Helvetica;html=1;rounded=1;fontStyle=1;strokeWidth=3;fillColor=#fff2cc;strokeColor=#d6b656;" vertex="1" parent="1">
          <mxGeometry x="148" y="110" width="530" height="70" as="geometry" />
        </mxCell>
        <mxCell id="C9hYvCVV3uAxWGgse5YC-168" style="edgeStyle=orthogonalEdgeStyle;rounded=0;orthogonalLoop=1;jettySize=auto;html=1;exitX=0.5;exitY=1;exitDx=0;exitDy=0;entryX=0.5;entryY=0;entryDx=0;entryDy=0;" edge="1" parent="1" source="C9hYvCVV3uAxWGgse5YC-103" target="C9hYvCVV3uAxWGgse5YC-100">
          <mxGeometry relative="1" as="geometry" />
        </mxCell>
        <mxCell id="C9hYvCVV3uAxWGgse5YC-103" value="FRONTEND SETUP" style="rounded=1;whiteSpace=wrap;html=1;fillColor=#d0cee2;strokeColor=#56517e;" vertex="1" parent="1">
          <mxGeometry x="163" y="30" width="500" height="40" as="geometry" />
        </mxCell>
        <mxCell id="C9hYvCVV3uAxWGgse5YC-160" value="&lt;div&gt;Calculate render queue&lt;/div&gt;" style="edgeStyle=orthogonalEdgeStyle;rounded=0;orthogonalLoop=1;jettySize=auto;html=1;exitX=0.5;exitY=1;exitDx=0;exitDy=0;entryX=0.5;entryY=0;entryDx=0;entryDy=0;" edge="1" parent="1" source="C9hYvCVV3uAxWGgse5YC-104" target="C9hYvCVV3uAxWGgse5YC-113">
          <mxGeometry relative="1" as="geometry" />
        </mxCell>
        <mxCell id="C9hYvCVV3uAxWGgse5YC-104" value="SCENE RENDERING" style="rounded=1;whiteSpace=wrap;html=1;fillColor=#d0cee2;strokeColor=#56517e;" vertex="1" parent="1">
          <mxGeometry x="163" y="220" width="500" height="40" as="geometry" />
        </mxCell>
        <mxCell id="C9hYvCVV3uAxWGgse5YC-153" value="" style="edgeStyle=orthogonalEdgeStyle;rounded=0;orthogonalLoop=1;jettySize=auto;html=1;entryX=0;entryY=0.5;entryDx=0;entryDy=0;" edge="1" parent="1" source="C9hYvCVV3uAxWGgse5YC-110" target="C9hYvCVV3uAxWGgse5YC-151">
          <mxGeometry relative="1" as="geometry">
            <mxPoint x="315" y="495" as="targetPoint" />
          </mxGeometry>
        </mxCell>
        <mxCell id="C9hYvCVV3uAxWGgse5YC-110" value="Draw start" style="whiteSpace=wrap;align=center;verticalAlign=middle;fontStyle=1;strokeWidth=3;fillColor=#FFFFCC" vertex="1" parent="1">
          <mxGeometry x="109" y="475" width="130" height="40" as="geometry" />
        </mxCell>
        <mxCell id="C9hYvCVV3uAxWGgse5YC-116" style="edgeStyle=orthogonalEdgeStyle;rounded=0;orthogonalLoop=1;jettySize=auto;html=1;exitX=1;exitY=0.5;exitDx=0;exitDy=0;entryX=0;entryY=0.5;entryDx=0;entryDy=0;" edge="1" parent="1" source="C9hYvCVV3uAxWGgse5YC-113" target="C9hYvCVV3uAxWGgse5YC-110">
          <mxGeometry relative="1" as="geometry" />
        </mxCell>
        <mxCell id="C9hYvCVV3uAxWGgse5YC-113" value="&lt;p style=&quot;margin: 0px ; margin-top: 4px ; text-align: center ; text-decoration: underline&quot;&gt;&lt;strong&gt;Resource upload&lt;/strong&gt;&lt;/p&gt;&lt;hr&gt;&lt;div&gt;Upload geometry buffers&lt;/div&gt;&lt;div&gt;Upload textures and set up channel swizzle&lt;/div&gt;&lt;div&gt;Compile shaders&lt;/div&gt;&lt;div&gt;Link shader programs&lt;br&gt;&lt;/div&gt;" style="verticalAlign=middle;align=center;overflow=fill;fontSize=12;fontFamily=Helvetica;html=1;rounded=1;fontStyle=1;strokeWidth=3;fillColor=#fff2cc;strokeColor=#d6b656;" vertex="1" parent="1">
          <mxGeometry x="148" y="320" width="530" height="100" as="geometry" />
        </mxCell>
        <mxCell id="C9hYvCVV3uAxWGgse5YC-123" style="edgeStyle=orthogonalEdgeStyle;rounded=0;orthogonalLoop=1;jettySize=auto;html=1;exitX=1;exitY=0.5;exitDx=0;exitDy=0;entryX=0.5;entryY=0;entryDx=0;entryDy=0;" edge="1" parent="1" source="C9hYvCVV3uAxWGgse5YC-119" target="C9hYvCVV3uAxWGgse5YC-122">
          <mxGeometry relative="1" as="geometry" />
        </mxCell>
        <mxCell id="C9hYvCVV3uAxWGgse5YC-119" value="Iterate render layers" style="whiteSpace=wrap;align=center;verticalAlign=middle;fontStyle=1;strokeWidth=3;fillColor=#FFFFCC" vertex="1" parent="1">
          <mxGeometry x="560" y="475" width="162" height="40" as="geometry" />
        </mxCell>
        <mxCell id="C9hYvCVV3uAxWGgse5YC-128" style="edgeStyle=orthogonalEdgeStyle;rounded=0;orthogonalLoop=1;jettySize=auto;html=1;exitX=0.5;exitY=1;exitDx=0;exitDy=0;entryX=0.5;entryY=0;entryDx=0;entryDy=0;" edge="1" parent="1" source="C9hYvCVV3uAxWGgse5YC-122" target="C9hYvCVV3uAxWGgse5YC-127">
          <mxGeometry relative="1" as="geometry" />
        </mxCell>
        <mxCell id="C9hYvCVV3uAxWGgse5YC-164" style="edgeStyle=orthogonalEdgeStyle;rounded=0;orthogonalLoop=1;jettySize=auto;html=1;exitX=1;exitY=0.5;exitDx=0;exitDy=0;entryX=0.5;entryY=0;entryDx=0;entryDy=0;" edge="1" parent="1" source="C9hYvCVV3uAxWGgse5YC-122" target="C9hYvCVV3uAxWGgse5YC-124">
          <mxGeometry relative="1" as="geometry" />
        </mxCell>
        <mxCell id="C9hYvCVV3uAxWGgse5YC-165" value="&lt;div&gt;No&lt;/div&gt;" style="edgeLabel;html=1;align=center;verticalAlign=middle;resizable=0;points=[];" vertex="1" connectable="0" parent="C9hYvCVV3uAxWGgse5YC-164">
          <mxGeometry x="0.3499" y="1" relative="1" as="geometry">
            <mxPoint as="offset" />
          </mxGeometry>
        </mxCell>
        <mxCell id="C9hYvCVV3uAxWGgse5YC-122" value="Are there any deferred render layers remaining?" style="rounded=1;whiteSpace=wrap;html=1;" vertex="1" parent="1">
          <mxGeometry x="50" y="580" width="346" height="30" as="geometry" />
        </mxCell>
        <mxCell id="C9hYvCVV3uAxWGgse5YC-162" style="edgeStyle=orthogonalEdgeStyle;rounded=0;orthogonalLoop=1;jettySize=auto;html=1;exitX=0.5;exitY=1;exitDx=0;exitDy=0;entryX=0.5;entryY=0;entryDx=0;entryDy=0;" edge="1" parent="1" source="C9hYvCVV3uAxWGgse5YC-124" target="C9hYvCVV3uAxWGgse5YC-145">
          <mxGeometry relative="1" as="geometry" />
        </mxCell>
        <mxCell id="C9hYvCVV3uAxWGgse5YC-124" value="Draw all forward shader-based objects" style="whiteSpace=wrap;align=center;verticalAlign=middle;fontStyle=1;strokeWidth=3;fillColor=#e1d5e7;strokeColor=#9673a6;" vertex="1" parent="1">
          <mxGeometry x="504" y="760" width="260" height="40" as="geometry" />
        </mxCell>
        <mxCell id="C9hYvCVV3uAxWGgse5YC-130" style="edgeStyle=orthogonalEdgeStyle;rounded=0;orthogonalLoop=1;jettySize=auto;html=1;exitX=0.5;exitY=1;exitDx=0;exitDy=0;entryX=0.5;entryY=0;entryDx=0;entryDy=0;" edge="1" parent="1" source="C9hYvCVV3uAxWGgse5YC-127" target="C9hYvCVV3uAxWGgse5YC-129">
          <mxGeometry relative="1" as="geometry" />
        </mxCell>
        <mxCell id="C9hYvCVV3uAxWGgse5YC-127" value="Bind and reset G-buffer&#xa;(keep depth buffer intact)" style="whiteSpace=wrap;align=center;verticalAlign=middle;fontStyle=1;strokeWidth=3;fillColor=#FFFFCC" vertex="1" parent="1">
          <mxGeometry x="93" y="640" width="260" height="40" as="geometry" />
        </mxCell>
        <mxCell id="C9hYvCVV3uAxWGgse5YC-133" style="edgeStyle=orthogonalEdgeStyle;rounded=0;orthogonalLoop=1;jettySize=auto;html=1;exitX=0.5;exitY=1;exitDx=0;exitDy=0;entryX=0.5;entryY=0;entryDx=0;entryDy=0;" edge="1" parent="1" source="C9hYvCVV3uAxWGgse5YC-129" target="C9hYvCVV3uAxWGgse5YC-131">
          <mxGeometry relative="1" as="geometry" />
        </mxCell>
        <mxCell id="C9hYvCVV3uAxWGgse5YC-129" value="Disable framebuffer alpha blending" style="whiteSpace=wrap;align=center;verticalAlign=middle;fontStyle=1;strokeWidth=3;fillColor=#FFFFCC" vertex="1" parent="1">
          <mxGeometry x="93" y="700" width="260" height="40" as="geometry" />
        </mxCell>
        <mxCell id="C9hYvCVV3uAxWGgse5YC-136" style="edgeStyle=orthogonalEdgeStyle;rounded=0;orthogonalLoop=1;jettySize=auto;html=1;exitX=0.5;exitY=1;exitDx=0;exitDy=0;entryX=0.5;entryY=0;entryDx=0;entryDy=0;" edge="1" parent="1" source="C9hYvCVV3uAxWGgse5YC-131" target="C9hYvCVV3uAxWGgse5YC-135">
          <mxGeometry relative="1" as="geometry" />
        </mxCell>
        <mxCell id="C9hYvCVV3uAxWGgse5YC-131" value="Draw all deferred shader-based objects on the layer" style="whiteSpace=wrap;align=center;verticalAlign=middle;fontStyle=1;strokeWidth=3;fillColor=#e1d5e7;strokeColor=#9673a6;" vertex="1" parent="1">
          <mxGeometry x="51.5" y="760" width="343" height="40" as="geometry" />
        </mxCell>
        <mxCell id="C9hYvCVV3uAxWGgse5YC-138" style="edgeStyle=orthogonalEdgeStyle;rounded=0;orthogonalLoop=1;jettySize=auto;html=1;exitX=0.5;exitY=1;exitDx=0;exitDy=0;entryX=0.5;entryY=0;entryDx=0;entryDy=0;" edge="1" parent="1" source="C9hYvCVV3uAxWGgse5YC-135" target="C9hYvCVV3uAxWGgse5YC-137">
          <mxGeometry relative="1" as="geometry" />
        </mxCell>
        <mxCell id="C9hYvCVV3uAxWGgse5YC-135" value="Bind main framebuffer" style="whiteSpace=wrap;align=center;verticalAlign=middle;fontStyle=1;strokeWidth=3;fillColor=#FFFFCC" vertex="1" parent="1">
          <mxGeometry x="93" y="820" width="260" height="40" as="geometry" />
        </mxCell>
        <mxCell id="C9hYvCVV3uAxWGgse5YC-140" style="edgeStyle=orthogonalEdgeStyle;rounded=0;orthogonalLoop=1;jettySize=auto;html=1;exitX=0.5;exitY=1;exitDx=0;exitDy=0;entryX=0.5;entryY=0;entryDx=0;entryDy=0;" edge="1" parent="1" source="C9hYvCVV3uAxWGgse5YC-137" target="C9hYvCVV3uAxWGgse5YC-139">
          <mxGeometry relative="1" as="geometry" />
        </mxCell>
        <mxCell id="C9hYvCVV3uAxWGgse5YC-137" value="Enable framebuffer alpha blending&#xa;+ disable depth buffer writes" style="whiteSpace=wrap;align=center;verticalAlign=middle;fontStyle=1;strokeWidth=3;fillColor=#FFFFCC" vertex="1" parent="1">
          <mxGeometry x="93" y="880" width="260" height="40" as="geometry" />
        </mxCell>
        <mxCell id="C9hYvCVV3uAxWGgse5YC-143" style="edgeStyle=orthogonalEdgeStyle;rounded=0;orthogonalLoop=1;jettySize=auto;html=1;exitX=0.5;exitY=1;exitDx=0;exitDy=0;entryX=0.5;entryY=0;entryDx=0;entryDy=0;" edge="1" parent="1" source="C9hYvCVV3uAxWGgse5YC-139" target="C9hYvCVV3uAxWGgse5YC-142">
          <mxGeometry relative="1" as="geometry" />
        </mxCell>
        <mxCell id="C9hYvCVV3uAxWGgse5YC-139" value="Blit G-buffer as forward-rendered quad" style="whiteSpace=wrap;align=center;verticalAlign=middle;fontStyle=1;strokeWidth=3;fillColor=#FFFFCC" vertex="1" parent="1">
          <mxGeometry x="93" y="940" width="260" height="40" as="geometry" />
        </mxCell>
        <mxCell id="C9hYvCVV3uAxWGgse5YC-144" style="edgeStyle=orthogonalEdgeStyle;rounded=0;orthogonalLoop=1;jettySize=auto;html=1;exitX=0.5;exitY=1;exitDx=0;exitDy=0;entryX=0;entryY=0.5;entryDx=0;entryDy=0;" edge="1" parent="1" source="C9hYvCVV3uAxWGgse5YC-142" target="C9hYvCVV3uAxWGgse5YC-122">
          <mxGeometry relative="1" as="geometry" />
        </mxCell>
        <mxCell id="C9hYvCVV3uAxWGgse5YC-142" value="Enable depth buffer writes" style="whiteSpace=wrap;align=center;verticalAlign=middle;fontStyle=1;strokeWidth=3;fillColor=#FFFFCC" vertex="1" parent="1">
          <mxGeometry x="93" y="1000" width="260" height="40" as="geometry" />
        </mxCell>
        <mxCell id="C9hYvCVV3uAxWGgse5YC-163" style="edgeStyle=orthogonalEdgeStyle;rounded=0;orthogonalLoop=1;jettySize=auto;html=1;exitX=0.5;exitY=1;exitDx=0;exitDy=0;entryX=0.5;entryY=0;entryDx=0;entryDy=0;" edge="1" parent="1" source="C9hYvCVV3uAxWGgse5YC-145" target="C9hYvCVV3uAxWGgse5YC-155">
          <mxGeometry relative="1" as="geometry" />
        </mxCell>
        <mxCell id="C9hYvCVV3uAxWGgse5YC-145" value="POST-PROCESSING" style="rounded=1;whiteSpace=wrap;html=1;fillColor=#d0cee2;strokeColor=#56517e;" vertex="1" parent="1">
          <mxGeometry x="492.5" y="830" width="283" height="40" as="geometry" />
        </mxCell>
        <mxCell id="C9hYvCVV3uAxWGgse5YC-154" style="edgeStyle=orthogonalEdgeStyle;rounded=0;orthogonalLoop=1;jettySize=auto;html=1;exitX=1;exitY=0.5;exitDx=0;exitDy=0;entryX=0;entryY=0.5;entryDx=0;entryDy=0;" edge="1" parent="1" source="C9hYvCVV3uAxWGgse5YC-151" target="C9hYvCVV3uAxWGgse5YC-119">
          <mxGeometry relative="1" as="geometry">
            <mxPoint x="570" y="495" as="targetPoint" />
          </mxGeometry>
        </mxCell>
        <mxCell id="C9hYvCVV3uAxWGgse5YC-151" value="Clear shared depth buffer" style="whiteSpace=wrap;align=center;verticalAlign=middle;fontStyle=1;strokeWidth=3;fillColor=#FFFFCC" vertex="1" parent="1">
          <mxGeometry x="332" y="475" width="162" height="40" as="geometry" />
        </mxCell>
        <mxCell id="C9hYvCVV3uAxWGgse5YC-157" style="edgeStyle=orthogonalEdgeStyle;rounded=0;orthogonalLoop=1;jettySize=auto;html=1;exitX=0.5;exitY=1;exitDx=0;exitDy=0;entryX=0.5;entryY=0;entryDx=0;entryDy=0;" edge="1" parent="1" source="C9hYvCVV3uAxWGgse5YC-155" target="C9hYvCVV3uAxWGgse5YC-156">
          <mxGeometry relative="1" as="geometry" />
        </mxCell>
        <mxCell id="C9hYvCVV3uAxWGgse5YC-155" value="&lt;p style=&quot;margin: 0px ; margin-top: 4px ; text-align: center ; text-decoration: underline&quot;&gt;Screen setup&lt;br&gt;&lt;/p&gt;&lt;hr&gt;&lt;div&gt;Bind screen framebuffer&lt;/div&gt;&lt;div&gt;Create regular viewport for downsampling&lt;br&gt;&lt;/div&gt;" style="verticalAlign=middle;align=center;overflow=fill;fontSize=12;fontFamily=Helvetica;html=1;rounded=1;fontStyle=1;strokeWidth=3;fillColor=#fff2cc;strokeColor=#d6b656;" vertex="1" parent="1">
          <mxGeometry x="490" y="900" width="288" height="70" as="geometry" />
        </mxCell>
        <mxCell id="C9hYvCVV3uAxWGgse5YC-159" value="" style="edgeStyle=orthogonalEdgeStyle;rounded=0;orthogonalLoop=1;jettySize=auto;html=1;" edge="1" parent="1" source="C9hYvCVV3uAxWGgse5YC-156" target="C9hYvCVV3uAxWGgse5YC-158">
          <mxGeometry relative="1" as="geometry" />
        </mxCell>
        <mxCell id="C9hYvCVV3uAxWGgse5YC-156" value="Blit main framebuffer to the screen" style="whiteSpace=wrap;align=center;verticalAlign=middle;fontStyle=1;strokeWidth=3;fillColor=#FFFFCC" vertex="1" parent="1">
          <mxGeometry x="504" y="1000" width="260" height="40" as="geometry" />
        </mxCell>
        <mxCell id="C9hYvCVV3uAxWGgse5YC-158" value="Display loop end." style="whiteSpace=wrap;html=1;fillColor=#fad9d5;fontStyle=1;strokeWidth=3;strokeColor=#ae4132;" vertex="1" parent="1">
          <mxGeometry x="353" y="1100" width="120" height="60" as="geometry" />
        </mxCell>
      </root>
    </mxGraphModel>
  </diagram>
</mxfile>
